<svg width="683" height="513" viewBox="0 0 683 513" fill="none" xmlns="http://www.w3.org/2000/svg">
<g clip-path="url(#clip0_437_201438)">
<mask id="mask0_437_201438" style="mask-type:alpha" maskUnits="userSpaceOnUse" x="166" y="-1" width="659" height="516">
<rect x="166.646" y="-0.460938" width="658" height="515" fill="#D9D9D9"/>
</mask>
<g mask="url(#mask0_437_201438)">
<path d="M166.648 8.27239C166.648 3.4491 170.558 -0.460938 175.382 -0.460938H952.648V523.539H166.648V8.27239Z" fill="#F4F4F6"/>
<rect x="195.903" y="84.6886" width="156.327" height="34.06" rx="1.31" stroke="#D9D9E0" stroke-width="0.873333"/>
<g clip-path="url(#clip1_437_201438)">
<path d="M297.119 46.1749V52.3692H294.858V46.5842C294.858 45.1753 294.256 44.3883 293.083 44.3883C291.909 44.3883 291.134 45.2147 290.915 46.5999C290.853 46.9305 290.837 47.4421 290.837 48.5204V52.3613H288.576V42.5229H290.579C290.587 42.6095 290.634 43.491 290.634 43.5461C290.634 43.6169 290.72 43.6563 290.775 43.609C291.604 42.9479 292.519 42.334 293.794 42.334C295.891 42.334 297.119 43.7586 297.119 46.1749Z" fill="black"/>
<path d="M284.93 42.5307L284.86 43.6562C284.852 43.727 284.766 43.7664 284.719 43.7192C284.445 43.4594 283.436 42.3418 281.723 42.3418C279.266 42.3418 277.459 44.4748 277.459 47.3712C277.459 50.307 279.251 52.4478 281.723 52.4478C283.374 52.4478 284.383 51.3696 284.571 51.1334C284.625 51.0705 284.727 51.1098 284.727 51.1885C284.704 51.4876 284.664 52.2353 284.414 52.8729C284.101 53.6757 283.397 54.4234 281.981 54.4234C280.815 54.4234 279.783 53.9748 278.805 53.0145L277.623 54.6438C278.695 55.8638 280.385 56.5485 282.224 56.5485C285.181 56.5485 286.957 54.51 286.957 51.1807V42.5307H284.93ZM282.208 50.3857C280.745 50.3857 279.712 49.1106 279.712 47.3712C279.712 45.6318 280.745 44.3882 282.208 44.3882C283.671 44.3882 284.704 45.6239 284.704 47.3712C284.696 49.1185 283.663 50.3857 282.208 50.3857Z" fill="black"/>
<path d="M272.734 49.449C272.734 51.3144 271.177 52.5658 268.893 52.5658C267.101 52.5658 265.505 51.8654 264.551 50.8658L265.294 49.087C266.014 49.7402 267.172 50.6769 268.822 50.6769C269.972 50.6769 270.637 50.1653 270.637 49.5199C270.637 48.7721 269.722 48.5754 268.627 48.3629C267.07 48.0323 265.005 47.4971 265.005 45.3641C265.005 43.5774 266.444 42.3496 268.572 42.3496C270.207 42.3496 271.615 42.9793 272.586 43.7978L271.475 45.3641C270.536 44.6164 269.55 44.2465 268.572 44.2465C267.594 44.2465 267.109 44.6557 267.109 45.246C267.109 46.0725 268.165 46.285 268.94 46.4424C270.888 46.8202 272.734 47.4105 272.734 49.449Z" fill="black"/>
<path d="M239.673 42.334C236.911 42.334 234.924 44.4906 234.924 47.45C234.924 50.4094 236.911 52.566 239.673 52.566C242.434 52.566 244.429 50.4094 244.429 47.45C244.429 44.4906 242.442 42.334 239.673 42.334ZM239.673 50.5038C238.21 50.5038 237.177 49.2524 237.177 47.4421C237.177 45.6397 238.186 44.3804 239.673 44.3804C241.151 44.3804 242.168 45.6318 242.168 47.4421C242.168 49.2524 241.136 50.5038 239.673 50.5038Z" fill="black"/>
<path d="M245.227 47.45C245.227 44.5299 247.214 42.334 249.866 42.334C251.97 42.334 253.512 43.3965 254.231 45.3957L252.229 46.1592C251.681 44.9235 250.961 44.3961 249.874 44.3961C248.512 44.3961 247.495 45.6869 247.495 47.4578C247.495 49.2209 248.505 50.5196 249.874 50.5196C250.969 50.5196 251.681 49.9922 252.229 48.7565L254.231 49.52C253.512 51.5192 251.97 52.5817 249.866 52.5817C247.214 52.566 245.227 50.37 245.227 47.45Z" fill="black"/>
<path d="M233.139 37.957C233.1 37.957 233.053 37.9649 233.014 37.9885L231.543 38.7756C231.512 38.7913 231.497 38.8228 231.497 38.8543V43.5374C231.497 43.6161 231.403 43.6476 231.348 43.6004C231.129 43.4115 230.62 42.9313 229.916 42.6008C229.548 42.4276 229.009 42.3332 228.516 42.3332C226.044 42.3332 224.252 44.4898 224.252 47.4492C224.252 50.4086 226.044 52.5651 228.516 52.5651C229.814 52.5651 230.792 51.8804 231.387 51.2665C231.426 51.2271 231.45 51.2035 231.489 51.1642C231.543 51.1091 231.637 51.1405 231.637 51.2193L231.716 52.3684H233.758V38.02C233.758 37.9885 233.734 37.957 233.695 37.957H233.139ZM229.001 50.503C227.522 50.503 226.505 49.2516 226.505 47.4413C226.505 45.631 227.546 44.3874 229.001 44.3874C230.464 44.3874 231.497 45.6389 231.497 47.4492C231.497 49.2516 230.487 50.503 229.001 50.503Z" fill="black"/>
<path d="M275.395 42.5608L273.979 43.3164C273.947 43.3322 273.932 43.3637 273.932 43.3951V52.3678H276.193V42.5845C276.193 42.553 276.169 42.5215 276.13 42.5215H275.52C275.473 42.5294 275.434 42.5372 275.395 42.5608Z" fill="black"/>
<path d="M275.059 40.9324C275.81 40.9324 276.42 40.3185 276.42 39.5629C276.42 38.8073 275.81 38.1934 275.059 38.1934C274.308 38.1934 273.697 38.8073 273.697 39.5629C273.697 40.3185 274.308 40.9324 275.059 40.9324Z" fill="black"/>
<path d="M263.737 42.5215V47.8657C263.737 51.9192 261.483 52.5567 259.473 52.5567C257.462 52.5567 255.209 51.9113 255.209 47.8657V42.5215H257.462V48.4324C257.462 49.007 257.603 50.5024 259.473 50.5024C261.343 50.5024 261.483 49.0149 261.483 48.4324V42.5215H263.737Z" fill="black"/>
<path d="M298.411 51.3613V51.503H298.091V52.3609H297.934V51.503H297.613V51.3613H298.411ZM299.53 52.3609H299.374V51.5738L299.068 52.1641H298.982L298.677 51.5817V52.3609H298.521V51.3613H298.724L299.022 51.9359L299.319 51.3613H299.522L299.53 52.3609Z" fill="black"/>
<path d="M216.562 48.5184V52.4144C216.562 52.619 216.398 52.7843 216.195 52.7843H206.016C205.813 52.7843 205.648 52.619 205.648 52.4144V42.1824C205.648 41.9778 205.813 41.8125 206.016 41.8125H209.881V48.1485C209.881 48.3531 210.045 48.5184 210.249 48.5184H216.562Z" fill="#4C00FF"/>
<path d="M220.802 43.0249C220.802 46.2992 218.901 48.5109 216.562 48.5187V44.3945C216.562 44.2764 216.515 44.1583 216.429 44.0796L214.301 41.9388C214.215 41.8522 214.106 41.805 213.988 41.805H209.889V37.9168C209.889 37.7122 210.053 37.5469 210.256 37.5469H215.991C218.714 37.539 220.802 39.7428 220.802 43.0249Z" fill="#FF5252"/>
<path d="M216.429 44.0715C216.515 44.158 216.562 44.2682 216.562 44.3863V48.5106H210.256C210.053 48.5106 209.889 48.3453 209.889 48.1406V41.8047H213.988C214.106 41.8047 214.223 41.8519 214.301 41.9385L216.429 44.0715Z" fill="black"/>
</g>
<rect x="206.822" y="149.752" width="13.9733" height="13.9733" rx="1.74667" fill="#006FF9"/>
<path d="M235.21 160.255C233.817 160.255 232.533 159.705 231.677 158.886L232.533 157.798C233.242 158.446 234.171 158.873 235.235 158.873C236.299 158.873 236.971 158.409 236.971 157.675C236.971 156.832 236.017 156.587 235.051 156.379C234.061 156.159 232.031 155.719 232.031 153.763C232.031 152.222 233.291 151.268 235.039 151.268C236.36 151.268 237.497 151.806 238.316 152.589L237.46 153.64C236.739 153.054 235.871 152.65 234.966 152.65C234.122 152.65 233.499 153.029 233.499 153.738C233.499 154.46 234.086 154.741 235.259 154.973C236.25 155.169 238.438 155.584 238.438 157.614C238.438 159.191 237.13 160.255 235.21 160.255ZM241.043 152.882H239.576V151.317H241.043V152.882ZM241.018 160.133H239.6V153.995H241.018V160.133ZM246.808 154.875L246.882 153.995H248.153V159.387C248.153 161.466 247.041 162.737 245.182 162.737C244.033 162.737 242.969 162.309 242.297 161.551L243.03 160.536C243.642 161.135 244.29 161.417 245.023 161.417C246.124 161.417 246.735 160.707 246.735 159.399V159.277C246.27 159.839 245.622 160.182 244.864 160.182C243.312 160.182 242.187 158.849 242.187 157.015C242.187 155.205 243.324 153.873 244.864 153.873C245.659 153.873 246.344 154.252 246.808 154.875ZM245.17 158.898C246.087 158.898 246.735 158.128 246.735 157.015C246.735 155.927 246.087 155.157 245.17 155.157C244.253 155.157 243.605 155.927 243.605 157.015C243.605 158.128 244.253 158.898 245.17 158.898ZM252.883 153.873C254.191 153.873 254.961 154.765 254.961 156.269V160.133H253.543V156.526C253.543 155.646 253.164 155.157 252.43 155.157C251.697 155.157 251.208 155.67 251.073 156.538C251.036 156.746 251.024 157.064 251.024 157.736V160.133H249.606V153.995H250.865L250.914 154.998C251.269 154.313 252.051 153.873 252.883 153.873ZM260.681 154.79V153.995H262.099V160.133H260.816L260.755 159.24C260.29 159.876 259.605 160.255 258.81 160.255C257.258 160.255 256.133 158.91 256.133 157.052C256.133 155.205 257.258 153.873 258.81 153.873C259.569 153.873 260.217 154.215 260.681 154.79ZM259.116 158.971C260.033 158.971 260.681 158.177 260.681 157.052C260.681 155.951 260.033 155.157 259.116 155.157C258.199 155.157 257.551 155.951 257.551 157.052C257.551 158.177 258.199 158.971 259.116 158.971ZM266.268 160.267C264.801 160.267 264.08 159.448 264.08 157.81V155.279H263.102V153.995H264.08V152.137H265.498V153.995H267.222V155.279H265.498V157.834C265.498 158.592 265.816 158.971 266.439 158.971C266.684 158.971 266.953 158.922 267.246 158.812L267.418 160.072C267.063 160.194 266.672 160.267 266.268 160.267ZM272.252 156.391V153.995H273.67V160.133H272.411L272.362 159.13C272.007 159.815 271.225 160.255 270.393 160.255C269.085 160.255 268.315 159.363 268.315 157.859V153.995H269.733V157.602C269.733 158.482 270.112 158.971 270.846 158.971C271.579 158.971 272.068 158.458 272.203 157.59C272.239 157.382 272.252 157.064 272.252 156.391ZM276.552 160.133H275.134V153.995H276.405L276.467 155.144H276.479C276.723 154.35 277.384 153.861 278.203 153.861C278.386 153.861 278.557 153.873 278.728 153.922L278.643 155.254C278.411 155.193 278.203 155.157 277.983 155.157C277.237 155.157 276.748 155.682 276.601 156.66C276.564 156.881 276.552 157.186 276.552 157.7V160.133ZM282.196 160.255C280.472 160.255 279.213 158.922 279.213 157.064C279.213 155.193 280.423 153.873 282.147 153.873C283.835 153.873 285.07 155.169 285.07 156.954C285.07 157.137 285.045 157.345 285.021 157.529H280.656C280.803 158.446 281.389 159.02 282.196 159.02C282.857 159.02 283.333 158.751 283.761 158.128L284.874 158.739C284.324 159.717 283.382 160.255 282.196 160.255ZM280.668 156.526H283.566C283.468 155.658 282.918 155.108 282.147 155.108C281.353 155.108 280.803 155.646 280.668 156.526Z" fill="black"/>
<path d="M235.075 105.236C232.715 105.236 230.979 103.34 230.979 100.748C230.979 98.1563 232.703 96.2489 235.075 96.2489C237.447 96.2489 239.183 98.1441 239.183 100.748C239.183 103.34 237.447 105.236 235.075 105.236ZM235.075 103.854C236.591 103.854 237.679 102.558 237.679 100.748C237.679 98.9266 236.603 97.6306 235.075 97.6306C233.559 97.6306 232.471 98.9266 232.471 100.748C232.471 102.558 233.559 103.854 235.075 103.854ZM241.869 105.113H240.45V96.1267H241.869V105.113ZM244.795 97.8629H243.327V96.2979H244.795V97.8629ZM244.77 105.113H243.352V98.9755H244.77V105.113ZM248.616 103.548L250.181 98.9755H251.661L249.362 105.113H247.871L245.56 98.9755H247.051L248.616 103.548ZM253.905 97.8629H252.438V96.2979H253.905V97.8629ZM253.88 105.113H252.462V98.9755H253.88V105.113ZM259.597 99.7702V98.9755H261.015V105.113H259.732L259.67 104.221C259.206 104.857 258.521 105.236 257.726 105.236C256.174 105.236 255.049 103.891 255.049 102.032C255.049 100.186 256.174 98.8532 257.726 98.8532C258.484 98.8532 259.132 99.1956 259.597 99.7702ZM258.032 103.952C258.949 103.952 259.597 103.157 259.597 102.032C259.597 100.932 258.949 100.137 258.032 100.137C257.115 100.137 256.467 100.932 256.467 102.032C256.467 103.157 257.115 103.952 258.032 103.952ZM266.91 96.3712V103.732H271.141V105.113H265.419V96.3712H266.91ZM274.76 105.236C273.036 105.236 271.777 103.903 271.777 102.044C271.777 100.174 272.987 98.8532 274.711 98.8532C276.399 98.8532 277.633 100.149 277.633 101.934C277.633 102.118 277.609 102.326 277.585 102.509H273.22C273.366 103.426 273.953 104.001 274.76 104.001C275.42 104.001 275.897 103.732 276.325 103.108L277.438 103.719C276.888 104.698 275.946 105.236 274.76 105.236ZM273.232 101.506H276.13C276.032 100.638 275.482 100.088 274.711 100.088C273.917 100.088 273.366 100.626 273.232 101.506ZM281.65 105.236C279.926 105.236 278.666 103.903 278.666 102.044C278.666 100.174 279.877 98.8532 281.601 98.8532C283.288 98.8532 284.523 100.149 284.523 101.934C284.523 102.118 284.498 102.326 284.474 102.509H280.109C280.256 103.426 280.843 104.001 281.65 104.001C282.31 104.001 282.787 103.732 283.215 103.108L284.327 103.719C283.777 104.698 282.836 105.236 281.65 105.236ZM280.121 101.506H283.019C282.921 100.638 282.371 100.088 281.601 100.088C280.806 100.088 280.256 100.626 280.121 101.506Z" fill="black"/>
<rect x="206.822" y="177.699" width="13.9733" height="13.9733" rx="1.74667" fill="#006FF9"/>
<path d="M233.523 188.078H232.031V179.336H233.523V188.078ZM238.328 181.818C239.636 181.818 240.406 182.711 240.406 184.214V188.078H238.988V184.471C238.988 183.591 238.609 183.102 237.875 183.102C237.142 183.102 236.653 183.615 236.518 184.483C236.481 184.691 236.469 185.009 236.469 185.682V188.078H235.051V181.94H236.31L236.359 182.943C236.714 182.258 237.496 181.818 238.328 181.818ZM243.264 180.828H241.796V179.263H243.264V180.828ZM243.239 188.078H241.821V181.94H243.239V188.078ZM247.439 188.213C245.972 188.213 245.25 187.393 245.25 185.755V183.224H244.272V181.94H245.25V180.082H246.668V181.94H248.392V183.224H246.668V185.78C246.668 186.538 246.986 186.917 247.61 186.917C247.854 186.917 248.123 186.868 248.417 186.758L248.588 188.017C248.233 188.139 247.842 188.213 247.439 188.213ZM251.084 180.828H249.617V179.263H251.084V180.828ZM251.06 188.078H249.642V181.94H251.06V188.078ZM256.777 182.735V181.94H258.195V188.078H256.911L256.85 187.186C256.385 187.821 255.701 188.2 254.906 188.2C253.353 188.2 252.228 186.855 252.228 184.997C252.228 183.151 253.353 181.818 254.906 181.818C255.664 181.818 256.312 182.16 256.777 182.735ZM255.212 186.917C256.129 186.917 256.777 186.122 256.777 184.997C256.777 183.897 256.129 183.102 255.212 183.102C254.295 183.102 253.647 183.897 253.647 184.997C253.647 186.122 254.295 186.917 255.212 186.917ZM261.078 188.078H259.659V179.092H261.078V188.078Z" fill="black"/>
<rect x="206.822" y="205.646" width="13.9733" height="13.9733" rx="1.74667" fill="#006FF9"/>
<rect x="206.822" y="261.539" width="13.9733" height="13.9733" rx="1.74667" fill="#006FF9"/>
<path d="M235.21 207.283C237.656 207.283 239.392 209.105 239.392 211.66C239.392 214.204 237.656 216.025 235.21 216.025H232.031V207.283H235.21ZM233.523 214.644H235.21C236.812 214.644 237.9 213.433 237.9 211.66C237.9 209.875 236.812 208.665 235.21 208.665H233.523V214.644ZM245.004 210.682V209.888H246.422V216.025H245.138L245.077 215.133C244.613 215.769 243.928 216.148 243.133 216.148C241.58 216.148 240.455 214.803 240.455 212.944C240.455 211.098 241.58 209.765 243.133 209.765C243.891 209.765 244.539 210.108 245.004 210.682ZM243.439 214.864C244.356 214.864 245.004 214.069 245.004 212.944C245.004 211.844 244.356 211.049 243.439 211.049C242.522 211.049 241.874 211.844 241.874 212.944C241.874 214.069 242.522 214.864 243.439 214.864ZM250.591 216.16C249.124 216.16 248.402 215.341 248.402 213.702V211.171H247.424V209.888H248.402V208.029H249.821V209.888H251.545V211.171H249.821V213.727C249.821 214.485 250.139 214.864 250.762 214.864C251.007 214.864 251.276 214.815 251.569 214.705L251.74 215.964C251.386 216.087 250.994 216.16 250.591 216.16ZM255.295 216.148C253.571 216.148 252.312 214.815 252.312 212.956C252.312 211.086 253.522 209.765 255.246 209.765C256.934 209.765 258.169 211.061 258.169 212.846C258.169 213.03 258.144 213.238 258.12 213.421H253.755C253.901 214.338 254.488 214.913 255.295 214.913C255.956 214.913 256.432 214.644 256.86 214.02L257.973 214.632C257.423 215.61 256.481 216.148 255.295 216.148ZM253.767 212.419H256.665C256.567 211.55 256.017 211 255.246 211C254.452 211 253.901 211.538 253.767 212.419Z" fill="black"/>
<path d="M234.611 263.178C236.739 263.178 238.071 264.29 238.071 266.063C238.071 267.848 236.739 268.961 234.611 268.961H233.523V271.92H232.031V263.178H234.611ZM233.523 267.604H234.611C235.92 267.604 236.58 267.09 236.58 266.063C236.58 265.061 235.907 264.535 234.611 264.535H233.523V267.604ZM243.332 266.577V265.782H244.75V271.92H243.467L243.406 271.027C242.941 271.663 242.256 272.042 241.461 272.042C239.909 272.042 238.784 270.697 238.784 268.839C238.784 266.993 239.909 265.66 241.461 265.66C242.22 265.66 242.868 266.002 243.332 266.577ZM241.767 270.758C242.684 270.758 243.332 269.964 243.332 268.839C243.332 267.738 242.684 266.944 241.767 266.944C240.85 266.944 240.202 267.738 240.202 268.839C240.202 269.964 240.85 270.758 241.767 270.758ZM246.999 274.414C246.534 274.414 246.057 274.304 245.666 274.133L246.02 272.947C246.265 273.069 246.546 273.143 246.815 273.143C247.28 273.143 247.634 272.837 247.891 272.164L248.099 271.639L245.617 265.782H247.109L248.784 269.976L250.239 265.782H251.73L249.138 272.605C248.661 273.888 247.903 274.414 246.999 274.414ZM259.17 265.66C260.442 265.66 261.2 266.601 261.2 268.166V271.92H259.781V268.179C259.781 267.384 259.427 266.944 258.791 266.944C258.131 266.944 257.727 267.384 257.617 268.215C257.593 268.472 257.581 268.778 257.581 269.279V271.92H256.174V268.179C256.174 267.384 255.82 266.944 255.184 266.944C254.512 266.944 254.108 267.384 254.01 268.215C253.974 268.472 253.961 268.778 253.961 269.279V271.92H252.543V265.782H253.803L253.851 266.614C254.182 266.027 254.83 265.66 255.612 265.66C256.37 265.66 256.945 266.027 257.275 266.675C257.678 266.039 258.363 265.66 259.17 265.66ZM265.361 272.042C263.637 272.042 262.378 270.709 262.378 268.851C262.378 266.98 263.588 265.66 265.312 265.66C266.999 265.66 268.234 266.956 268.234 268.741C268.234 268.924 268.21 269.132 268.185 269.316H263.82C263.967 270.233 264.554 270.807 265.361 270.807C266.021 270.807 266.498 270.538 266.926 269.915L268.038 270.526C267.488 271.504 266.547 272.042 265.361 272.042ZM263.832 268.313H266.73C266.632 267.445 266.082 266.895 265.312 266.895C264.517 266.895 263.967 267.433 263.832 268.313ZM272.679 265.66C273.988 265.66 274.758 266.552 274.758 268.056V271.92H273.34V268.313C273.34 267.433 272.961 266.944 272.227 266.944C271.493 266.944 271.004 267.457 270.87 268.325C270.833 268.533 270.821 268.851 270.821 269.523V271.92H269.403V265.782H270.662L270.711 266.785C271.065 266.1 271.848 265.66 272.679 265.66ZM278.674 272.054C277.207 272.054 276.485 271.235 276.485 269.597V267.066H275.507V265.782H276.485V263.924H277.904V265.782H279.628V267.066H277.904V269.621C277.904 270.379 278.222 270.758 278.845 270.758C279.09 270.758 279.359 270.709 279.652 270.599L279.823 271.859C279.469 271.981 279.078 272.054 278.674 272.054Z" fill="black"/>
<rect x="206.822" y="233.592" width="13.9733" height="13.9733" rx="1.74667" fill="#006FF9"/>
<rect x="206.822" y="289.486" width="13.9733" height="13.9733" rx="1.74667" fill="#006FF9"/>
<path d="M237.546 241.711V235.231H239.037V243.973H237.265L233.523 237.48V243.973H232.031V235.231H233.817L237.546 241.711ZM244.813 238.63V237.835H246.231V243.973H244.947L244.886 243.08C244.421 243.716 243.737 244.095 242.942 244.095C241.389 244.095 240.264 242.75 240.264 240.892C240.264 239.045 241.389 237.713 242.942 237.713C243.7 237.713 244.348 238.055 244.813 238.63ZM243.248 242.811C244.165 242.811 244.813 242.016 244.813 240.892C244.813 239.791 244.165 238.996 243.248 238.996C242.331 238.996 241.683 239.791 241.683 240.892C241.683 242.016 242.331 242.811 243.248 242.811ZM254.322 237.713C255.594 237.713 256.352 238.654 256.352 240.219V243.973H254.934V240.231C254.934 239.437 254.579 238.996 253.943 238.996C253.283 238.996 252.88 239.437 252.77 240.268C252.745 240.525 252.733 240.83 252.733 241.332V243.973H251.327V240.231C251.327 239.437 250.972 238.996 250.336 238.996C249.664 238.996 249.26 239.437 249.163 240.268C249.126 240.525 249.114 240.83 249.114 241.332V243.973H247.695V237.835H248.955L249.004 238.666C249.334 238.079 249.982 237.713 250.764 237.713C251.522 237.713 252.097 238.079 252.427 238.727C252.831 238.092 253.515 237.713 254.322 237.713ZM260.513 244.095C258.789 244.095 257.53 242.762 257.53 240.904C257.53 239.033 258.74 237.713 260.464 237.713C262.152 237.713 263.386 239.009 263.386 240.794C263.386 240.977 263.362 241.185 263.337 241.368H258.973C259.119 242.285 259.706 242.86 260.513 242.86C261.173 242.86 261.65 242.591 262.078 241.967L263.191 242.579C262.641 243.557 261.699 244.095 260.513 244.095ZM258.985 240.366H261.883C261.785 239.498 261.235 238.947 260.464 238.947C259.669 238.947 259.119 239.485 258.985 240.366Z" fill="black"/>
<path d="M238.499 291.123V292.505H235.822V299.865H234.33V292.505H231.665V291.123H238.499ZM240.454 299.988C238.73 299.988 237.47 298.655 237.47 296.796C237.47 294.926 238.681 293.605 240.405 293.605C242.092 293.605 243.327 294.901 243.327 296.686C243.327 296.87 243.303 297.078 243.278 297.261H238.913C239.06 298.178 239.647 298.753 240.454 298.753C241.114 298.753 241.591 298.484 242.019 297.86L243.131 298.471C242.581 299.45 241.64 299.988 240.454 299.988ZM238.925 296.258H241.823C241.725 295.39 241.175 294.84 240.405 294.84C239.61 294.84 239.06 295.378 238.925 296.258ZM247.559 296.796L249.675 299.865H248.061L246.63 297.616L245.2 299.865H243.598L245.701 296.796L243.635 293.727H245.249L246.63 295.977L248.012 293.727H249.626L247.559 296.796ZM253.254 300C251.786 300 251.065 299.181 251.065 297.542V295.011H250.087V293.727H251.065V291.869H252.483V293.727H254.207V295.011H252.483V297.567C252.483 298.325 252.801 298.704 253.425 298.704C253.669 298.704 253.938 298.655 254.232 298.545L254.403 299.804C254.048 299.926 253.657 300 253.254 300Z" fill="black"/>
<circle cx="212.936" cy="101.719" r="6.98667" fill="#795BF8"/>
<rect x="384.98" y="38.8398" width="567.667" height="484.7" fill="white"/>
<path d="M443.672 492.546H445.129L442.383 496.685V500.039H441.104V496.706L438.348 492.546H439.805L441.744 495.606L443.672 492.546ZM446.655 500.144C445.167 500.144 444.098 499.002 444.098 497.409C444.098 495.826 445.167 494.673 446.655 494.673C448.143 494.673 449.212 495.826 449.212 497.409C449.212 499.002 448.143 500.144 446.655 500.144ZM446.655 499.043C447.441 499.043 447.996 498.373 447.996 497.409C447.996 496.444 447.451 495.774 446.655 495.774C445.858 495.774 445.313 496.444 445.313 497.409C445.313 498.373 445.869 499.043 446.655 499.043ZM453.595 496.832V494.778H454.811V500.039H453.731L453.689 499.18C453.385 499.767 452.715 500.144 452.002 500.144C450.881 500.144 450.22 499.379 450.22 498.09V494.778H451.436V497.87C451.436 498.624 451.761 499.043 452.39 499.043C453.019 499.043 453.438 498.603 453.553 497.859C453.585 497.681 453.595 497.409 453.595 496.832ZM457.281 500.039H456.065V494.778H457.155L457.208 495.763H457.218C457.428 495.082 457.994 494.663 458.696 494.663C458.853 494.663 459 494.673 459.147 494.715L459.073 495.858C458.874 495.805 458.696 495.774 458.507 495.774C457.868 495.774 457.449 496.224 457.323 497.063C457.292 497.251 457.281 497.513 457.281 497.954V500.039ZM465.168 500.144C463.973 500.144 462.872 499.672 462.139 498.97L462.872 498.037C463.48 498.593 464.277 498.96 465.188 498.96C466.1 498.96 466.677 498.561 466.677 497.933C466.677 497.209 465.859 497 465.031 496.822C464.182 496.633 462.443 496.256 462.443 494.579C462.443 493.259 463.522 492.441 465.021 492.441C466.153 492.441 467.127 492.902 467.829 493.573L467.096 494.474C466.478 493.971 465.733 493.625 464.958 493.625C464.235 493.625 463.7 493.95 463.7 494.558C463.7 495.176 464.203 495.417 465.209 495.617C466.058 495.784 467.934 496.141 467.934 497.88C467.934 499.232 466.813 500.144 465.168 500.144ZM470.167 493.824H468.909V492.483H470.167V493.824ZM470.146 500.039H468.93V494.778H470.146V500.039ZM475.109 495.533L475.172 494.778H476.262V499.4C476.262 501.181 475.308 502.271 473.715 502.271C472.73 502.271 471.818 501.905 471.242 501.255L471.87 500.385C472.394 500.898 472.95 501.139 473.579 501.139C474.522 501.139 475.046 500.532 475.046 499.41V499.305C474.648 499.788 474.092 500.081 473.442 500.081C472.111 500.081 471.147 498.939 471.147 497.367C471.147 495.816 472.122 494.673 473.442 494.673C474.124 494.673 474.71 494.998 475.109 495.533ZM473.704 498.981C474.49 498.981 475.046 498.32 475.046 497.367C475.046 496.434 474.49 495.774 473.704 495.774C472.918 495.774 472.363 496.434 472.363 497.367C472.363 498.32 472.918 498.981 473.704 498.981ZM480.315 494.673C481.437 494.673 482.097 495.438 482.097 496.727V500.039H480.881V496.947C480.881 496.193 480.556 495.774 479.927 495.774C479.299 495.774 478.879 496.214 478.764 496.958C478.733 497.136 478.722 497.409 478.722 497.985V500.039H477.507V494.778H478.586L478.628 495.637C478.932 495.051 479.603 494.673 480.315 494.673ZM487 495.459V494.778H488.215V500.039H487.115L487.062 499.274C486.664 499.819 486.077 500.144 485.396 500.144C484.065 500.144 483.101 498.991 483.101 497.398C483.101 495.816 484.065 494.673 485.396 494.673C486.046 494.673 486.601 494.967 487 495.459ZM485.658 499.043C486.444 499.043 487 498.362 487 497.398C487 496.455 486.444 495.774 485.658 495.774C484.872 495.774 484.317 496.455 484.317 497.398C484.317 498.362 484.872 499.043 485.658 499.043ZM491.789 500.154C490.531 500.154 489.913 499.452 489.913 498.048V495.879H489.074V494.778H489.913V493.185H491.128V494.778H492.606V495.879H491.128V498.069C491.128 498.719 491.401 499.043 491.935 499.043C492.145 499.043 492.375 499.002 492.627 498.907L492.774 499.987C492.47 500.091 492.134 500.154 491.789 500.154ZM496.917 496.832V494.778H498.133V500.039H497.053L497.011 499.18C496.708 499.767 496.037 500.144 495.324 500.144C494.203 500.144 493.543 499.379 493.543 498.09V494.778H494.758V497.87C494.758 498.624 495.083 499.043 495.712 499.043C496.341 499.043 496.76 498.603 496.875 497.859C496.907 497.681 496.917 497.409 496.917 496.832ZM500.603 500.039H499.388V494.778H500.478L500.53 495.763H500.54C500.75 495.082 501.316 494.663 502.018 494.663C502.175 494.663 502.322 494.673 502.469 494.715L502.395 495.858C502.196 495.805 502.018 495.774 501.829 495.774C501.19 495.774 500.771 496.224 500.645 497.063C500.614 497.251 500.603 497.513 500.603 497.954V500.039ZM505.441 500.144C503.964 500.144 502.884 499.002 502.884 497.409C502.884 495.805 503.922 494.673 505.399 494.673C506.846 494.673 507.904 495.784 507.904 497.314C507.904 497.471 507.883 497.65 507.862 497.807H504.121C504.246 498.593 504.75 499.085 505.441 499.085C506.007 499.085 506.416 498.855 506.783 498.32L507.736 498.844C507.265 499.683 506.458 500.144 505.441 500.144ZM504.131 496.947H506.615C506.531 496.203 506.06 495.732 505.399 495.732C504.718 495.732 504.246 496.193 504.131 496.947Z" fill="black"/>
<rect x="439.129" y="474.545" width="209.6" height="0.873333" fill="#D9D9E0"/>
<rect x="662.703" y="474.545" width="131" height="0.873333" fill="#D9D9E0"/>
<rect x="440.002" y="296.473" width="189.513" height="24.4533" rx="0.873333" stroke="#4C00FF" stroke-width="1.74667"/>
<rect x="651.348" y="296.473" width="189.513" height="24.4533" rx="0.873333" stroke="#4C00FF" stroke-width="1.74667"/>
<rect x="440.002" y="359.352" width="189.513" height="24.4533" rx="0.873333" stroke="#4C00FF" stroke-width="1.74667"/>
<rect x="663.576" y="443.479" width="129.253" height="24.4533" rx="0.873333" stroke="#4C00FF" stroke-width="1.74667"/>
<path d="M446.135 102.929C442.595 102.929 439.991 100.087 439.991 96.1987C439.991 92.2923 442.595 89.4496 446.135 89.4496C448.501 89.4496 450.481 90.7151 451.508 92.8792L449.601 93.9062C448.886 92.3657 447.657 91.522 446.135 91.522C443.861 91.522 442.228 93.4661 442.228 96.1987C442.228 98.913 443.861 100.857 446.135 100.857C447.657 100.857 448.886 100.013 449.601 98.4729L451.508 99.4999C450.481 101.664 448.501 102.929 446.135 102.929ZM457.198 102.929C454.594 102.929 452.723 100.93 452.723 98.1428C452.723 95.3734 454.594 93.356 457.198 93.356C459.802 93.356 461.673 95.3734 461.673 98.1428C461.673 100.93 459.802 102.929 457.198 102.929ZM457.198 101.004C458.573 101.004 459.545 99.83 459.545 98.1428C459.545 96.4555 458.592 95.2817 457.198 95.2817C455.804 95.2817 454.85 96.4555 454.85 98.1428C454.85 99.83 455.822 101.004 457.198 101.004ZM473.362 93.356C475.269 93.356 476.406 94.7682 476.406 97.1157V102.746H474.279V97.1341C474.279 95.942 473.747 95.2817 472.793 95.2817C471.803 95.2817 471.198 95.942 471.033 97.1891C470.996 97.5742 470.978 98.0327 470.978 98.7847V102.746H468.869V97.1341C468.869 95.942 468.337 95.2817 467.383 95.2817C466.374 95.2817 465.769 95.942 465.622 97.1891C465.567 97.5742 465.549 98.0327 465.549 98.7847V102.746H463.422V93.5394H465.311L465.384 94.7865C465.879 93.9062 466.851 93.356 468.025 93.356C469.162 93.356 470.024 93.9062 470.519 94.8782C471.124 93.9246 472.152 93.356 473.362 93.356ZM488.478 93.356C490.385 93.356 491.523 94.7682 491.523 97.1157V102.746H489.395V97.1341C489.395 95.942 488.863 95.2817 487.91 95.2817C486.919 95.2817 486.314 95.942 486.149 97.1891C486.112 97.5742 486.094 98.0327 486.094 98.7847V102.746H483.985V97.1341C483.985 95.942 483.453 95.2817 482.499 95.2817C481.491 95.2817 480.885 95.942 480.739 97.1891C480.684 97.5742 480.665 98.0327 480.665 98.7847V102.746H478.538V93.5394H480.427L480.5 94.7865C480.995 93.9062 481.967 93.356 483.141 93.356C484.278 93.356 485.14 93.9062 485.635 94.8782C486.241 93.9246 487.268 93.356 488.478 93.356ZM497.764 102.929C495.178 102.929 493.289 100.93 493.289 98.1428C493.289 95.3367 495.105 93.356 497.691 93.356C500.222 93.356 502.074 95.3001 502.074 97.9777C502.074 98.2528 502.038 98.5646 502.001 98.8397H495.453C495.674 100.215 496.554 101.077 497.764 101.077C498.755 101.077 499.47 100.674 500.112 99.7383L501.781 100.655C500.955 102.123 499.543 102.929 497.764 102.929ZM495.472 97.3358H499.818C499.672 96.0337 498.846 95.2084 497.691 95.2084C496.499 95.2084 495.674 96.0153 495.472 97.3358ZM505.954 102.746H503.827V93.5394H505.734L505.826 95.2634H505.844C506.211 94.0713 507.202 93.3377 508.43 93.3377C508.705 93.3377 508.962 93.356 509.219 93.4294L509.091 95.4284C508.742 95.3367 508.43 95.2817 508.1 95.2817C506.981 95.2817 506.248 96.0703 506.028 97.5375C505.973 97.8677 505.954 98.3262 505.954 99.0964V102.746ZM514.311 102.929C511.816 102.929 509.946 100.875 509.946 98.1428C509.946 95.4101 511.816 93.356 514.311 93.356C516.291 93.356 517.74 94.3464 518.419 96.2171L516.53 96.9323C516.016 95.7769 515.338 95.2817 514.311 95.2817C513.027 95.2817 512.073 96.4922 512.073 98.1428C512.073 99.775 513.027 101.004 514.311 101.004C515.338 101.004 516.016 100.509 516.53 99.3532L518.419 100.068C517.74 101.939 516.291 102.929 514.311 102.929ZM522.128 91.8705H519.927V89.523H522.128V91.8705ZM522.091 102.746H519.964V93.5394H522.091V102.746ZM530.667 94.7315V93.5394H532.794V102.746H530.868L530.777 101.407C530.08 102.361 529.053 102.929 527.861 102.929C525.531 102.929 523.844 100.912 523.844 98.1244C523.844 95.3551 525.531 93.356 527.861 93.356C528.998 93.356 529.97 93.8695 530.667 94.7315ZM528.319 101.004C529.695 101.004 530.667 99.8117 530.667 98.1244C530.667 96.4738 529.695 95.2817 528.319 95.2817C526.944 95.2817 525.972 96.4738 525.972 98.1244C525.972 99.8117 526.944 101.004 528.319 101.004ZM537.118 102.746H534.991V89.2662H537.118V102.746ZM545.97 89.633V100.674H552.316V102.746H543.733V89.633H545.97ZM557.745 102.929C555.159 102.929 553.27 100.93 553.27 98.1428C553.27 95.3367 555.086 93.356 557.672 93.356C560.203 93.356 562.055 95.3001 562.055 97.9777C562.055 98.2528 562.019 98.5646 561.982 98.8397H555.435C555.655 100.215 556.535 101.077 557.745 101.077C558.736 101.077 559.451 100.674 560.093 99.7383L561.762 100.655C560.937 102.123 559.524 102.929 557.745 102.929ZM555.453 97.3358H559.8C559.653 96.0337 558.827 95.2084 557.672 95.2084C556.48 95.2084 555.655 96.0153 555.453 97.3358ZM570.427 94.7315V93.5394H572.555V102.746H570.629L570.537 101.407C569.84 102.361 568.813 102.929 567.621 102.929C565.292 102.929 563.605 100.912 563.605 98.1244C563.605 95.3551 565.292 93.356 567.621 93.356C568.758 93.356 569.73 93.8695 570.427 94.7315ZM568.08 101.004C569.455 101.004 570.427 99.8117 570.427 98.1244C570.427 96.4738 569.455 95.2817 568.08 95.2817C566.704 95.2817 565.732 96.4738 565.732 98.1244C565.732 99.8117 566.704 101.004 568.08 101.004ZM578.128 102.929C576.441 102.929 574.937 102.269 574.039 101.334L575.084 99.9217C575.909 100.71 576.973 101.151 578.055 101.151C579.137 101.151 579.761 100.674 579.761 100.068C579.761 99.3715 578.899 99.1881 577.872 98.9864C576.404 98.6746 574.46 98.1794 574.46 96.1804C574.46 94.5114 575.817 93.356 577.817 93.356C579.357 93.356 580.678 93.9429 581.595 94.7132L580.549 96.1804C579.669 95.4835 578.734 95.135 577.817 95.135C576.918 95.135 576.441 95.5201 576.441 96.0703C576.441 96.8406 577.431 97.0424 578.165 97.1891C579.999 97.5559 581.741 98.1061 581.741 100.013C581.741 101.756 580.274 102.929 578.128 102.929ZM587.566 102.929C584.98 102.929 583.091 100.93 583.091 98.1428C583.091 95.3367 584.907 93.356 587.492 93.356C590.023 93.356 591.876 95.3001 591.876 97.9777C591.876 98.2528 591.839 98.5646 591.802 98.8397H585.255C585.475 100.215 586.355 101.077 587.566 101.077C588.556 101.077 589.271 100.674 589.913 99.7383L591.582 100.655C590.757 102.123 589.345 102.929 587.566 102.929ZM585.273 97.3358H589.62C589.473 96.0337 588.648 95.2084 587.492 95.2084C586.3 95.2084 585.475 96.0153 585.273 97.3358ZM609.393 102.746H607.064L605.89 99.5183H600.517L599.343 102.746H597.014L601.966 89.633H604.442L609.393 102.746ZM603.213 92.1823L601.232 97.5742H605.175L603.213 92.1823ZM616.942 94.8599L617.052 93.5394H618.96V101.627C618.96 104.745 617.291 106.653 614.503 106.653C612.779 106.653 611.184 106.011 610.175 104.874L611.275 103.351C612.192 104.25 613.164 104.672 614.265 104.672C615.915 104.672 616.832 103.608 616.832 101.646V101.462C616.135 102.306 615.163 102.819 614.026 102.819C611.697 102.819 610.01 100.82 610.01 98.0694C610.01 95.3551 611.715 93.356 614.026 93.356C615.218 93.356 616.245 93.9246 616.942 94.8599ZM614.485 100.894C615.86 100.894 616.832 99.7383 616.832 98.0694C616.832 96.4371 615.86 95.2817 614.485 95.2817C613.109 95.2817 612.137 96.4371 612.137 98.0694C612.137 99.7383 613.109 100.894 614.485 100.894ZM623.266 102.746H621.139V93.5394H623.046L623.138 95.2634H623.156C623.523 94.0713 624.513 93.3377 625.742 93.3377C626.017 93.3377 626.274 93.356 626.53 93.4294L626.402 95.4284C626.054 95.3367 625.742 95.2817 625.412 95.2817C624.293 95.2817 623.559 96.0703 623.339 97.5375C623.284 97.8677 623.266 98.3262 623.266 99.0964V102.746ZM631.732 102.929C629.146 102.929 627.257 100.93 627.257 98.1428C627.257 95.3367 629.073 93.356 631.659 93.356C634.19 93.356 636.042 95.3001 636.042 97.9777C636.042 98.2528 636.006 98.5646 635.969 98.8397H629.421C629.642 100.215 630.522 101.077 631.732 101.077C632.723 101.077 633.438 100.674 634.08 99.7383L635.749 100.655C634.923 102.123 633.511 102.929 631.732 102.929ZM629.44 97.3358H633.786C633.64 96.0337 632.814 95.2084 631.659 95.2084C630.467 95.2084 629.642 96.0153 629.44 97.3358ZM642.066 102.929C639.481 102.929 637.591 100.93 637.591 98.1428C637.591 95.3367 639.407 93.356 641.993 93.356C644.524 93.356 646.376 95.3001 646.376 97.9777C646.376 98.2528 646.34 98.5646 646.303 98.8397H639.756C639.976 100.215 640.856 101.077 642.066 101.077C643.057 101.077 643.772 100.674 644.414 99.7383L646.083 100.655C645.258 102.123 643.845 102.929 642.066 102.929ZM639.774 97.3358H644.121C643.974 96.0337 643.149 95.2084 641.993 95.2084C640.801 95.2084 639.976 96.0153 639.774 97.3358ZM658.069 93.356C659.977 93.356 661.114 94.7682 661.114 97.1157V102.746H658.986V97.1341C658.986 95.942 658.455 95.2817 657.501 95.2817C656.51 95.2817 655.905 95.942 655.74 97.1891C655.704 97.5742 655.685 98.0327 655.685 98.7847V102.746H653.576V97.1341C653.576 95.942 653.044 95.2817 652.091 95.2817C651.082 95.2817 650.477 95.942 650.33 97.1891C650.275 97.5742 650.257 98.0327 650.257 98.7847V102.746H648.129V93.5394H650.018L650.091 94.7865C650.587 93.9062 651.559 93.356 652.732 93.356C653.87 93.356 654.732 93.9062 655.227 94.8782C655.832 93.9246 656.859 93.356 658.069 93.356ZM667.356 102.929C664.77 102.929 662.881 100.93 662.881 98.1428C662.881 95.3367 664.696 93.356 667.282 93.356C669.813 93.356 671.665 95.3001 671.665 97.9777C671.665 98.2528 671.629 98.5646 671.592 98.8397H665.045C665.265 100.215 666.145 101.077 667.356 101.077C668.346 101.077 669.061 100.674 669.703 99.7383L671.372 100.655C670.547 102.123 669.135 102.929 667.356 102.929ZM665.063 97.3358H669.41C669.263 96.0337 668.438 95.2084 667.282 95.2084C666.09 95.2084 665.265 96.0153 665.063 97.3358ZM678.333 93.356C680.296 93.356 681.451 94.6948 681.451 96.9507V102.746H679.324V97.3358C679.324 96.0153 678.755 95.2817 677.655 95.2817C676.554 95.2817 675.821 96.052 675.619 97.3541C675.564 97.6659 675.546 98.1428 675.546 99.1515V102.746H673.418V93.5394H675.307L675.381 95.0433C675.912 94.0163 677.086 93.356 678.333 93.356ZM687.325 102.948C685.125 102.948 684.043 101.719 684.043 99.2615V95.4651H682.575V93.5394H684.043V90.7517H686.17V93.5394H688.756V95.4651H686.17V99.2982C686.17 100.435 686.647 101.004 687.582 101.004C687.949 101.004 688.352 100.93 688.793 100.765L689.049 102.654C688.518 102.838 687.931 102.948 687.325 102.948Z" fill="black"/>
<rect x="439.129" y="161.105" width="436.667" height="6.98667" rx="0.873333" fill="#D9D9E0"/>
<rect x="439.129" y="213.506" width="436.667" height="6.98667" rx="0.873333" fill="#D9D9E0"/>
<rect x="439.129" y="175.078" width="419.2" height="6.98667" rx="0.873333" fill="#D9D9E0"/>
<rect x="439.129" y="227.479" width="436.667" height="6.98667" rx="0.873333" fill="#D9D9E0"/>
<rect x="439.129" y="241.453" width="325.753" height="6.98667" rx="0.873333" fill="#D9D9E0"/>
<rect x="439.129" y="281.625" width="89.9533" height="6.98667" rx="0.873333" fill="#D9D9E0"/>
<rect x="439.129" y="116.566" width="89.9533" height="5.24" rx="0.873333" fill="#D9D9E0"/>
<rect x="650.475" y="281.625" width="72.4867" height="6.98667" rx="0.873333" fill="#D9D9E0"/>
<rect x="439.129" y="344.506" width="107.42" height="6.98667" rx="0.873333" fill="#D9D9E0"/>
</g>
<g filter="url(#filter0_b_437_201438)">
<rect x="75.6094" y="310.113" width="420.037" height="145" rx="12.9456" fill="black" fill-opacity="0.4"/>
</g>
<path d="M105.316 380.066V393.991H113.418V396.203H102.969V380.066H105.316ZM117.853 382.729H115.506V380.134H117.853V382.729ZM117.785 396.203H115.573V384.986H117.785V396.203ZM126.399 384.761C128.814 384.761 130.258 386.431 130.258 389.139V396.203H128.046V389.432C128.046 387.717 127.256 386.792 125.789 386.792C124.255 386.792 123.216 387.83 122.901 389.568C122.833 389.997 122.81 390.516 122.81 391.78V396.203H120.598V384.986H122.585L122.652 386.995C123.352 385.618 124.774 384.761 126.399 384.761ZM141.135 386.634V379.615H143.37V396.203H141.338L141.225 394.443C140.368 395.684 139.036 396.429 137.479 396.429C134.613 396.429 132.536 393.991 132.536 390.606C132.536 387.198 134.613 384.761 137.479 384.761C138.991 384.761 140.278 385.46 141.135 386.634ZM137.953 394.398C139.826 394.398 141.135 392.84 141.135 390.606C141.135 388.372 139.826 386.792 137.953 386.792C136.057 386.792 134.748 388.349 134.748 390.606C134.748 392.84 136.057 394.398 137.953 394.398ZM154.227 386.634V384.986H156.461V396.203H154.43L154.317 394.42C153.46 395.684 152.128 396.429 150.571 396.429C147.705 396.429 145.628 393.969 145.628 390.583C145.628 387.221 147.705 384.761 150.571 384.761C152.06 384.761 153.347 385.46 154.227 386.634ZM151.045 394.398C152.895 394.398 154.227 392.818 154.227 390.583C154.227 388.372 152.895 386.792 151.045 386.792C149.172 386.792 147.84 388.372 147.84 390.583C147.84 392.818 149.172 394.398 151.045 394.398ZM170.524 396.429C168.042 396.429 165.694 395.458 164.047 393.856L165.446 392.163C166.846 393.495 168.651 394.24 170.547 394.24C172.713 394.24 174.09 393.247 174.09 391.734C174.09 389.974 172.104 389.478 170.276 389.094C168.448 388.71 164.747 387.898 164.747 384.332C164.747 381.511 167.094 379.84 170.186 379.84C172.623 379.84 174.632 380.834 176.212 382.255L174.812 383.925C173.391 382.752 171.788 382.052 170.095 382.052C168.38 382.052 167.071 382.842 167.071 384.332C167.071 385.912 168.47 386.431 170.569 386.837C172.42 387.198 176.415 387.988 176.415 391.667C176.415 394.51 174.022 396.429 170.524 396.429ZM180.954 382.729H178.607V380.134H180.954V382.729ZM180.886 396.203H178.674V384.986H180.886V396.203ZM195.842 384.761C198.144 384.761 199.498 386.453 199.498 389.297V396.203H197.286V389.297C197.286 387.695 196.564 386.792 195.278 386.792C193.901 386.792 193.021 387.762 192.772 389.478C192.727 389.951 192.705 390.516 192.705 391.531V396.203H190.493V389.297C190.493 387.695 189.771 386.792 188.507 386.792C187.085 386.792 186.227 387.74 186.002 389.478C185.934 389.951 185.911 390.516 185.911 391.531V396.203H183.7V384.986H185.686L185.753 386.702C186.363 385.505 187.604 384.761 189.116 384.761C190.583 384.761 191.689 385.505 192.253 386.837C192.975 385.528 194.262 384.761 195.842 384.761ZM207.203 396.429C204.044 396.429 201.787 393.991 201.787 390.606C201.787 387.198 204.044 384.761 207.203 384.761C210.34 384.761 212.62 387.198 212.62 390.606C212.62 393.991 210.34 396.429 207.203 396.429ZM207.203 394.398C209.076 394.398 210.385 392.84 210.385 390.606C210.385 388.349 209.076 386.792 207.203 386.792C205.307 386.792 203.998 388.349 203.998 390.606C203.998 392.84 205.33 394.398 207.203 394.398ZM220.665 384.761C223.08 384.761 224.524 386.431 224.524 389.139V396.203H222.312V389.432C222.312 387.717 221.522 386.792 220.055 386.792C218.521 386.792 217.482 387.83 217.166 389.568C217.099 389.997 217.076 390.516 217.076 391.78V396.203H214.864V384.986H216.85L216.918 386.995C217.618 385.618 219.04 384.761 220.665 384.761ZM242.993 393.472L245.092 384.986H247.349L244.37 396.203H242.022L239.427 387.853L236.809 396.203H234.462L231.483 384.986H233.717L235.816 393.517L238.434 384.986H240.397L242.993 393.472ZM253.906 396.429C250.747 396.429 248.49 393.991 248.49 390.606C248.49 387.198 250.747 384.761 253.906 384.761C257.044 384.761 259.323 387.198 259.323 390.606C259.323 393.991 257.044 396.429 253.906 396.429ZM253.906 394.398C255.78 394.398 257.089 392.84 257.089 390.606C257.089 388.349 255.78 386.792 253.906 386.792C252.011 386.792 250.702 388.349 250.702 390.606C250.702 392.84 252.033 394.398 253.906 394.398ZM269.035 389.432V384.986H271.247V396.203H269.26L269.193 394.217C268.493 395.571 267.071 396.429 265.446 396.429C263.031 396.429 261.587 394.781 261.587 392.05V384.986H263.799V391.757C263.799 393.472 264.589 394.398 266.056 394.398C267.59 394.398 268.629 393.359 268.945 391.622C269.012 391.193 269.035 390.674 269.035 389.432ZM276.276 396.203H274.064V379.615H276.276V396.203ZM287.129 386.634V379.615H289.364V396.203H287.333L287.22 394.443C286.362 395.684 285.031 396.429 283.473 396.429C280.607 396.429 278.531 393.991 278.531 390.606C278.531 387.198 280.607 384.761 283.473 384.761C284.985 384.761 286.272 385.46 287.129 386.634ZM283.947 394.398C285.82 394.398 287.129 392.84 287.129 390.606C287.129 388.372 285.82 386.792 283.947 386.792C282.051 386.792 280.742 388.349 280.742 390.606C280.742 392.84 282.051 394.398 283.947 394.398ZM299.815 396.203H297.603V379.615H299.815V396.203ZM304.93 382.729H302.583V380.134H304.93V382.729ZM304.862 396.203H302.651V384.986H304.862V396.203ZM318.08 396.203H315.462L311.828 390.99L309.909 393.021V396.203H307.698V379.615H309.909V390.2L314.694 384.986H317.493L313.272 389.455L318.08 396.203ZM323.642 396.429C320.504 396.429 318.225 393.991 318.225 390.606C318.225 387.198 320.414 384.761 323.529 384.761C326.598 384.761 328.833 387.153 328.833 390.448C328.833 390.787 328.81 391.102 328.765 391.373H320.482C320.753 393.247 321.971 394.443 323.642 394.443C324.951 394.443 325.899 393.901 326.756 392.66L328.494 393.675C327.478 395.458 325.786 396.429 323.642 396.429ZM320.482 389.681H326.508C326.327 387.898 325.154 386.747 323.529 386.747C321.904 386.747 320.753 387.898 320.482 389.681ZM337.262 400.807C336.427 400.807 335.727 400.627 335.095 400.356L335.637 398.528C336.02 398.686 336.472 398.821 336.991 398.821C337.894 398.821 338.593 398.234 339.112 396.925L339.541 395.819L334.96 384.986H337.284L340.579 393.179L343.491 384.986H345.815L341.053 397.58C340.151 399.972 338.729 400.807 337.262 400.807ZM351.985 396.429C348.826 396.429 346.569 393.991 346.569 390.606C346.569 387.198 348.826 384.761 351.985 384.761C355.122 384.761 357.402 387.198 357.402 390.606C357.402 393.991 355.122 396.429 351.985 396.429ZM351.985 394.398C353.859 394.398 355.168 392.84 355.168 390.606C355.168 388.349 353.859 386.792 351.985 386.792C350.089 386.792 348.78 388.349 348.78 390.606C348.78 392.84 350.112 394.398 351.985 394.398ZM367.114 389.432V384.986H369.325V396.203H367.339L367.272 394.217C366.572 395.571 365.15 396.429 363.525 396.429C361.11 396.429 359.666 394.781 359.666 392.05V384.986H361.878V391.757C361.878 393.472 362.668 394.398 364.135 394.398C365.669 394.398 366.707 393.359 367.023 391.622C367.091 391.193 367.114 390.674 367.114 389.432ZM382.576 396.429C379.957 396.429 378.694 395.03 378.694 392.05V387.017H376.843V384.986H378.694V381.511H380.905V384.986H384.223V387.017H380.905V392.073C380.905 393.63 381.537 394.398 382.824 394.398C383.275 394.398 383.772 394.307 384.268 394.127L384.562 396.113C383.952 396.339 383.253 396.429 382.576 396.429ZM391.063 396.429C387.903 396.429 385.646 393.991 385.646 390.606C385.646 387.198 387.903 384.761 391.063 384.761C394.2 384.761 396.479 387.198 396.479 390.606C396.479 393.991 394.2 396.429 391.063 396.429ZM391.063 394.398C392.936 394.398 394.245 392.84 394.245 390.606C394.245 388.349 392.936 386.792 391.063 386.792C389.167 386.792 387.858 388.349 387.858 390.606C387.858 392.84 389.189 394.398 391.063 394.398ZM408.166 396.429C406.157 396.429 404.329 395.684 403.246 394.533L404.351 392.998C405.344 393.991 406.744 394.533 408.098 394.533C409.475 394.533 410.377 393.901 410.377 393.021C410.377 391.983 409.046 391.712 407.85 391.464C406.067 391.125 403.742 390.493 403.742 388.101C403.742 386.115 405.367 384.761 407.714 384.761C409.52 384.761 411.009 385.37 412.251 386.363L411.145 387.92C410.039 387.085 408.865 386.679 407.714 386.679C406.541 386.679 405.841 387.198 405.841 387.988C405.841 389.094 407.285 389.365 408.143 389.523C410.265 389.929 412.476 390.606 412.476 392.953C412.476 395.052 410.716 396.429 408.166 396.429ZM416.828 382.729H414.481V380.134H416.828V382.729ZM416.76 396.203H414.549V384.986H416.76V396.203ZM427.726 386.769L427.861 384.986H429.87V394.894C429.87 398.686 427.839 401.01 424.499 401.01C422.422 401.01 420.526 400.22 419.308 398.844L420.504 397.264C421.632 398.415 422.851 398.957 424.295 398.957C426.44 398.957 427.636 397.512 427.636 394.917V394.488C426.778 395.661 425.492 396.361 423.98 396.361C421.113 396.361 419.037 393.901 419.037 390.538C419.037 387.198 421.136 384.761 423.98 384.761C425.537 384.761 426.868 385.505 427.726 386.769ZM424.453 394.33C426.304 394.33 427.636 392.75 427.636 390.538C427.636 388.372 426.304 386.792 424.453 386.792C422.58 386.792 421.249 388.372 421.249 390.538C421.249 392.75 422.58 394.33 424.453 394.33ZM438.466 384.761C440.881 384.761 442.325 386.431 442.325 389.139V396.203H440.113V389.432C440.113 387.717 439.324 386.792 437.857 386.792C436.322 386.792 435.284 387.83 434.968 389.568C434.9 389.997 434.877 390.516 434.877 391.78V396.203H432.666V384.986H434.652L434.719 386.995C435.419 385.618 436.841 384.761 438.466 384.761ZM447.245 387.74H444.739V384.986H447.245V387.74ZM447.245 396.203H444.739V393.45H447.245V396.203Z" fill="#D5D5D5"/>
<path d="M110.123 424.429C105.768 424.429 102.563 420.931 102.563 416.146C102.563 411.339 105.768 407.84 110.123 407.84C113.035 407.84 115.472 409.398 116.736 412.061L114.389 413.325C113.509 411.429 111.997 410.391 110.123 410.391C107.325 410.391 105.316 412.783 105.316 416.146C105.316 419.486 107.325 421.879 110.123 421.879C111.997 421.879 113.509 420.84 114.389 418.945L116.736 420.208C115.472 422.872 113.035 424.429 110.123 424.429ZM123.738 424.429C120.533 424.429 118.231 421.969 118.231 418.538C118.231 415.13 120.533 412.648 123.738 412.648C126.942 412.648 129.244 415.13 129.244 418.538C129.244 421.969 126.942 424.429 123.738 424.429ZM123.738 422.059C125.43 422.059 126.626 420.615 126.626 418.538C126.626 416.462 125.453 415.017 123.738 415.017C122.022 415.017 120.849 416.462 120.849 418.538C120.849 420.615 122.045 422.059 123.738 422.059ZM143.629 412.648C145.976 412.648 147.376 414.386 147.376 417.274V424.203H144.758V417.297C144.758 415.83 144.103 415.017 142.929 415.017C141.711 415.017 140.966 415.83 140.763 417.365C140.718 417.839 140.695 418.403 140.695 419.328V424.203H138.1V417.297C138.1 415.83 137.445 415.017 136.272 415.017C135.03 415.017 134.285 415.83 134.105 417.365C134.037 417.839 134.015 418.403 134.015 419.328V424.203H131.397V412.873H133.721L133.811 414.408C134.421 413.325 135.617 412.648 137.061 412.648C138.461 412.648 139.521 413.325 140.131 414.521C140.876 413.347 142.139 412.648 143.629 412.648ZM162.231 412.648C164.578 412.648 165.977 414.386 165.977 417.274V424.203H163.359V417.297C163.359 415.83 162.705 415.017 161.531 415.017C160.313 415.017 159.568 415.83 159.365 417.365C159.32 417.839 159.297 418.403 159.297 419.328V424.203H156.702V417.297C156.702 415.83 156.047 415.017 154.873 415.017C153.632 415.017 152.887 415.83 152.707 417.365C152.639 417.839 152.617 418.403 152.617 419.328V424.203H149.999V412.873H152.323L152.413 414.408C153.023 413.325 154.219 412.648 155.663 412.648C157.063 412.648 158.123 413.325 158.733 414.521C159.478 413.347 160.741 412.648 162.231 412.648ZM173.659 424.429C170.476 424.429 168.152 421.969 168.152 418.538C168.152 415.085 170.386 412.648 173.568 412.648C176.683 412.648 178.962 415.04 178.962 418.335C178.962 418.674 178.917 419.057 178.872 419.396H170.815C171.086 421.089 172.169 422.149 173.659 422.149C174.877 422.149 175.758 421.653 176.547 420.502L178.601 421.63C177.586 423.436 175.848 424.429 173.659 424.429ZM170.837 417.545H176.186C176.006 415.943 174.99 414.927 173.568 414.927C172.101 414.927 171.086 415.92 170.837 417.545ZM183.737 424.203H181.119V412.873H183.466L183.579 414.995H183.602C184.053 413.528 185.272 412.625 186.784 412.625C187.123 412.625 187.439 412.648 187.755 412.738L187.597 415.198C187.168 415.085 186.784 415.017 186.378 415.017C185.001 415.017 184.098 415.988 183.828 417.793C183.76 418.2 183.737 418.764 183.737 419.712V424.203ZM194.021 424.429C190.951 424.429 188.649 421.901 188.649 418.538C188.649 415.175 190.951 412.648 194.021 412.648C196.458 412.648 198.241 413.866 199.076 416.169L196.751 417.049C196.119 415.627 195.284 415.017 194.021 415.017C192.441 415.017 191.267 416.507 191.267 418.538C191.267 420.547 192.441 422.059 194.021 422.059C195.284 422.059 196.119 421.45 196.751 420.028L199.076 420.908C198.241 423.21 196.458 424.429 194.021 424.429ZM203.641 410.82H200.932V407.931H203.641V410.82ZM203.596 424.203H200.977V412.873H203.596V424.203ZM214.148 414.34V412.873H216.766V424.203H214.396L214.283 422.556C213.426 423.729 212.162 424.429 210.695 424.429C207.829 424.429 205.752 421.946 205.752 418.516C205.752 415.108 207.829 412.648 210.695 412.648C212.094 412.648 213.29 413.28 214.148 414.34ZM211.259 422.059C212.952 422.059 214.148 420.592 214.148 418.516C214.148 416.484 212.952 415.017 211.259 415.017C209.566 415.017 208.37 416.484 208.37 418.516C208.37 420.592 209.566 422.059 211.259 422.059ZM222.087 424.203H219.469V407.615H222.087V424.203ZM232.981 408.066V421.653H240.79V424.203H230.227V408.066H232.981ZM247.471 424.429C244.289 424.429 241.964 421.969 241.964 418.538C241.964 415.085 244.199 412.648 247.381 412.648C250.495 412.648 252.775 415.04 252.775 418.335C252.775 418.674 252.73 419.057 252.685 419.396H244.627C244.898 421.089 245.982 422.149 247.471 422.149C248.69 422.149 249.57 421.653 250.36 420.502L252.414 421.63C251.398 423.436 249.66 424.429 247.471 424.429ZM244.65 417.545H249.999C249.818 415.943 248.803 414.927 247.381 414.927C245.914 414.927 244.898 415.92 244.65 417.545ZM263.077 414.34V412.873H265.695V424.203H263.326L263.213 422.556C262.355 423.729 261.091 424.429 259.624 424.429C256.758 424.429 254.682 421.946 254.682 418.516C254.682 415.108 256.758 412.648 259.624 412.648C261.023 412.648 262.22 413.28 263.077 414.34ZM260.188 422.059C261.881 422.059 263.077 420.592 263.077 418.516C263.077 416.484 261.881 415.017 260.188 415.017C258.496 415.017 257.3 416.484 257.3 418.516C257.3 420.592 258.496 422.059 260.188 422.059ZM272.554 424.429C270.478 424.429 268.627 423.616 267.521 422.465L268.808 420.727C269.823 421.698 271.132 422.24 272.464 422.24C273.796 422.24 274.563 421.653 274.563 420.908C274.563 420.05 273.502 419.825 272.238 419.576C270.433 419.193 268.041 418.583 268.041 416.123C268.041 414.07 269.711 412.648 272.171 412.648C274.066 412.648 275.691 413.37 276.82 414.318L275.533 416.123C274.45 415.266 273.299 414.837 272.171 414.837C271.065 414.837 270.478 415.311 270.478 415.988C270.478 416.936 271.697 417.184 272.599 417.365C274.856 417.816 277 418.493 277 420.84C277 422.984 275.195 424.429 272.554 424.429ZM284.168 424.429C280.986 424.429 278.661 421.969 278.661 418.538C278.661 415.085 280.896 412.648 284.078 412.648C287.192 412.648 289.472 415.04 289.472 418.335C289.472 418.674 289.427 419.057 289.382 419.396H281.324C281.595 421.089 282.679 422.149 284.168 422.149C285.387 422.149 286.267 421.653 287.057 420.502L289.111 421.63C288.095 423.436 286.357 424.429 284.168 424.429ZM281.347 417.545H286.696C286.515 415.943 285.5 414.927 284.078 414.927C282.611 414.927 281.595 415.92 281.347 417.545ZM311.029 424.203H308.163L306.718 420.231H300.105L298.661 424.203H295.795L301.888 408.066H304.935L311.029 424.203ZM303.423 411.203L300.986 417.839H305.838L303.423 411.203ZM320.319 414.498L320.454 412.873H322.801V422.826C322.801 426.663 320.748 429.01 317.317 429.01C315.196 429.01 313.232 428.22 311.991 426.821L313.345 424.948C314.473 426.054 315.67 426.573 317.024 426.573C319.055 426.573 320.183 425.264 320.183 422.849V422.623C319.326 423.661 318.13 424.293 316.73 424.293C313.864 424.293 311.788 421.833 311.788 418.448C311.788 415.108 313.887 412.648 316.73 412.648C318.197 412.648 319.461 413.347 320.319 414.498ZM317.295 421.924C318.987 421.924 320.183 420.502 320.183 418.448C320.183 416.439 318.987 415.017 317.295 415.017C315.602 415.017 314.406 416.439 314.406 418.448C314.406 420.502 315.602 421.924 317.295 421.924ZM328.101 424.203H325.483V412.873H327.83L327.943 414.995H327.965C328.417 413.528 329.635 412.625 331.147 412.625C331.486 412.625 331.802 412.648 332.118 412.738L331.96 415.198C331.531 415.085 331.147 415.017 330.741 415.017C329.364 415.017 328.462 415.988 328.191 417.793C328.123 418.2 328.101 418.764 328.101 419.712V424.203ZM338.519 424.429C335.337 424.429 333.012 421.969 333.012 418.538C333.012 415.085 335.247 412.648 338.429 412.648C341.544 412.648 343.823 415.04 343.823 418.335C343.823 418.674 343.778 419.057 343.733 419.396H335.676C335.946 421.089 337.03 422.149 338.519 422.149C339.738 422.149 340.618 421.653 341.408 420.502L343.462 421.63C342.446 423.436 340.708 424.429 338.519 424.429ZM335.698 417.545H341.047C340.866 415.943 339.851 414.927 338.429 414.927C336.962 414.927 335.946 415.92 335.698 417.545ZM351.236 424.429C348.054 424.429 345.73 421.969 345.73 418.538C345.73 415.085 347.964 412.648 351.146 412.648C354.261 412.648 356.54 415.04 356.54 418.335C356.54 418.674 356.495 419.057 356.45 419.396H348.393C348.664 421.089 349.747 422.149 351.236 422.149C352.455 422.149 353.335 421.653 354.125 420.502L356.179 421.63C355.163 423.436 353.426 424.429 351.236 424.429ZM348.415 417.545H353.764C353.584 415.943 352.568 414.927 351.146 414.927C349.679 414.927 348.664 415.92 348.415 417.545ZM370.93 412.648C373.277 412.648 374.676 414.386 374.676 417.274V424.203H372.058V417.297C372.058 415.83 371.404 415.017 370.23 415.017C369.011 415.017 368.266 415.83 368.063 417.365C368.018 417.839 367.996 418.403 367.996 419.328V424.203H365.4V417.297C365.4 415.83 364.746 415.017 363.572 415.017C362.331 415.017 361.586 415.83 361.405 417.365C361.338 417.839 361.315 418.403 361.315 419.328V424.203H358.697V412.873H361.022L361.112 414.408C361.721 413.325 362.918 412.648 364.362 412.648C365.761 412.648 366.822 413.325 367.431 414.521C368.176 413.347 369.44 412.648 370.93 412.648ZM382.357 424.429C379.175 424.429 376.85 421.969 376.85 418.538C376.85 415.085 379.085 412.648 382.267 412.648C385.381 412.648 387.661 415.04 387.661 418.335C387.661 418.674 387.616 419.057 387.571 419.396H379.514C379.784 421.089 380.868 422.149 382.357 422.149C383.576 422.149 384.456 421.653 385.246 420.502L387.3 421.63C386.284 423.436 384.546 424.429 382.357 424.429ZM379.536 417.545H384.885C384.704 415.943 383.689 414.927 382.267 414.927C380.8 414.927 379.784 415.92 379.536 417.545ZM395.866 412.648C398.281 412.648 399.703 414.295 399.703 417.071V424.203H397.085V417.545C397.085 415.92 396.386 415.017 395.031 415.017C393.677 415.017 392.774 415.965 392.526 417.568C392.458 417.951 392.436 418.538 392.436 419.78V424.203H389.818V412.873H392.143L392.233 414.724C392.887 413.46 394.332 412.648 395.866 412.648ZM406.932 424.451C404.224 424.451 402.892 422.939 402.892 419.915V415.243H401.087V412.873H402.892V409.443H405.51V412.873H408.692V415.243H405.51V419.96C405.51 421.359 406.097 422.059 407.248 422.059C407.699 422.059 408.196 421.969 408.738 421.766L409.054 424.09C408.399 424.316 407.677 424.451 406.932 424.451Z" fill="#F5F5F5"/>
<path opacity="0.6" d="M448.067 347.927C449.729 347.927 450.724 349.076 450.724 350.94V355.803H449.201V351.142C449.201 349.962 448.657 349.325 447.648 349.325C446.591 349.325 445.877 350.039 445.659 351.236C445.613 351.531 445.597 351.888 445.597 352.758V355.803H444.075V348.082H445.442L445.488 349.465C445.97 348.517 446.949 347.927 448.067 347.927ZM456.02 355.958C453.845 355.958 452.292 354.28 452.292 351.95C452.292 349.604 453.845 347.927 456.02 347.927C458.179 347.927 459.748 349.604 459.748 351.95C459.748 354.28 458.179 355.958 456.02 355.958ZM456.02 354.56C457.309 354.56 458.21 353.488 458.21 351.95C458.21 350.397 457.309 349.325 456.02 349.325C454.715 349.325 453.814 350.397 453.814 351.95C453.814 353.488 454.731 354.56 456.02 354.56ZM468.442 353.923L469.887 348.082H471.44L469.39 355.803H467.774L465.988 350.055L464.186 355.803H462.57L460.52 348.082H462.057L463.502 353.954L465.304 348.082H466.656L468.442 353.923Z" fill="#F5F5F5"/>
<path opacity="0.6" d="M148.502 341.654C152.515 341.654 155.343 344.623 155.343 348.836C155.343 353.029 152.515 355.998 148.502 355.998H143.366V341.654H148.502ZM145.453 354.032H148.502C151.311 354.032 153.257 351.926 153.257 348.836C153.257 345.727 151.331 343.62 148.502 343.62H145.453V354.032ZM161.582 356.199C158.774 356.199 156.768 354.032 156.768 351.023C156.768 347.994 158.774 345.827 161.582 345.827C164.371 345.827 166.397 347.994 166.397 351.023C166.397 354.032 164.371 356.199 161.582 356.199ZM161.582 354.393C163.248 354.393 164.411 353.009 164.411 351.023C164.411 349.017 163.248 347.632 161.582 347.632C159.897 347.632 158.734 349.017 158.734 351.023C158.734 353.009 159.917 354.393 161.582 354.393ZM172.463 356.199C169.794 356.199 167.788 353.972 167.788 351.023C167.788 348.074 169.794 345.827 172.463 345.827C174.569 345.827 176.094 346.85 176.836 348.816L175.091 349.538C174.489 348.234 173.686 347.632 172.463 347.632C170.918 347.632 169.754 349.097 169.754 351.023C169.754 352.929 170.918 354.393 172.463 354.393C173.686 354.393 174.489 353.811 175.091 352.507L176.836 353.21C176.094 355.176 174.569 356.199 172.463 356.199ZM184.768 349.98V346.027H186.734V355.998H184.968L184.908 354.233C184.286 355.436 183.022 356.199 181.578 356.199C179.431 356.199 178.147 354.734 178.147 352.307V346.027H180.113V352.046C180.113 353.571 180.815 354.393 182.119 354.393C183.484 354.393 184.406 353.47 184.687 351.926C184.748 351.544 184.768 351.083 184.768 349.98ZM192.41 356.199C190.625 356.199 189 355.537 188.037 354.513L189.02 353.149C189.903 354.032 191.147 354.513 192.35 354.513C193.574 354.513 194.376 353.952 194.376 353.169C194.376 352.247 193.193 352.006 192.13 351.785C190.545 351.484 188.478 350.922 188.478 348.796C188.478 347.031 189.923 345.827 192.009 345.827C193.614 345.827 194.938 346.369 196.042 347.251L195.059 348.635C194.075 347.893 193.032 347.532 192.009 347.532C190.966 347.532 190.344 347.994 190.344 348.696C190.344 349.679 191.628 349.919 192.39 350.06C194.276 350.421 196.242 351.023 196.242 353.109C196.242 354.975 194.677 356.199 192.41 356.199ZM199.709 344.021H197.623V341.714H199.709V344.021ZM199.649 355.998H197.683V346.027H199.649V355.998ZM208.995 347.612L209.115 346.027H210.901V354.834C210.901 358.205 209.095 360.271 206.126 360.271C204.281 360.271 202.595 359.569 201.512 358.345L202.575 356.941C203.578 357.964 204.662 358.446 205.946 358.446C207.851 358.446 208.915 357.162 208.915 354.855V354.473C208.152 355.517 207.009 356.138 205.665 356.138C203.117 356.138 201.271 353.952 201.271 350.963C201.271 347.994 203.137 345.827 205.665 345.827C207.049 345.827 208.233 346.489 208.995 347.612ZM206.086 354.333C207.731 354.333 208.915 352.929 208.915 350.963C208.915 349.037 207.731 347.632 206.086 347.632C204.421 347.632 203.237 349.037 203.237 350.963C203.237 352.929 204.421 354.333 206.086 354.333ZM218.14 345.827C220.287 345.827 221.571 347.311 221.571 349.719V355.998H219.605V349.98C219.605 348.455 218.903 347.632 217.599 347.632C216.234 347.632 215.312 348.555 215.031 350.1C214.971 350.481 214.951 350.943 214.951 352.066V355.998H212.985V346.027H214.75L214.81 347.813C215.432 346.589 216.696 345.827 218.14 345.827Z" fill="#F5F5F5"/>
<g clip-path="url(#clip2_437_201438)">
<path d="M119.612 354.538V360.925C119.612 361.263 119.336 361.538 118.998 361.538H102.223C101.885 361.538 101.609 361.263 101.609 360.925V344.145C101.609 343.807 101.885 343.531 102.223 343.531H108.605V353.929C108.605 354.267 108.88 354.543 109.218 354.543L119.612 354.538Z" fill="#4C00FF"/>
<path d="M126.609 345.539C126.609 350.914 123.479 354.532 119.611 354.544V347.777C119.611 347.583 119.532 347.396 119.396 347.259L115.886 343.75C115.75 343.613 115.562 343.534 115.368 343.534H108.602V337.152C108.602 336.815 108.877 336.539 109.215 336.539H118.683C123.164 336.539 126.609 340.155 126.609 345.539Z" fill="#FF5252"/>
<path d="M119.396 347.258C119.532 347.395 119.611 347.582 119.611 347.777V354.543H109.213C108.875 354.543 108.6 354.267 108.6 353.929V343.531H115.366C115.56 343.531 115.748 343.61 115.884 343.747L119.396 347.258Z" fill="white"/>
</g>
</g>
<defs>
<filter id="filter0_b_437_201438" x="10.8812" y="245.385" width="549.493" height="274.456" filterUnits="userSpaceOnUse" color-interpolation-filters="sRGB">
<feFlood flood-opacity="0" result="BackgroundImageFix"/>
<feGaussianBlur in="BackgroundImageFix" stdDeviation="32.3641"/>
<feComposite in2="SourceAlpha" operator="in" result="effect1_backgroundBlur_437_201438"/>
<feBlend mode="normal" in="SourceGraphic" in2="effect1_backgroundBlur_437_201438" result="shape"/>
</filter>
<clipPath id="clip0_437_201438">
<rect width="682" height="512" fill="white" transform="translate(0.646484 0.539062)"/>
</clipPath>
<clipPath id="clip1_437_201438">
<rect width="93.8824" height="19" fill="white" transform="translate(205.648 37.5391)"/>
</clipPath>
<clipPath id="clip2_437_201438">
<rect width="25" height="25" fill="white" transform="translate(101.609 336.539)"/>
</clipPath>
</defs>
</svg>
